<?xml version="1.0" encoding="UTF-8"?>
<svg id="Layer_4" data-name="Layer 4" xmlns="http://www.w3.org/2000/svg" xmlns:xlink="http://www.w3.org/1999/xlink" viewBox="0 0 1106.38 1200.48">
  <defs>
    <style>
      .cls-1 {
        fill: url(#New_Gradient_Swatch_copy);
      }

      .cls-2 {
        fill: url(#New_Gradient_Swatch_copy-2);
      }
    </style>
    <linearGradient id="New_Gradient_Swatch_copy" data-name="New Gradient Swatch copy" x1="233.32" y1="638.29" x2="876.37" y2="638.29" gradientUnits="userSpaceOnUse">
      <stop offset="0" stop-color="#ff7a2a"/>
      <stop offset=".09" stop-color="#ff921a"/>
      <stop offset=".19" stop-color="#ffa40e"/>
      <stop offset=".29" stop-color="#ffb007"/>
      <stop offset=".4" stop-color="#ffb405"/>
      <stop offset=".6" stop-color="#ffb405"/>
      <stop offset="1" stop-color="#ff7a2a"/>
    </linearGradient>
    <linearGradient id="New_Gradient_Swatch_copy-2" data-name="New Gradient Swatch copy" x1="406.24" y1="500.48" x2="698.46" y2="500.48" xlink:href="#New_Gradient_Swatch_copy"/>
  </defs>
  <path class="cls-1" d="M572.19,193.97h-34.69c-178.19,10.62-314.03,163.8-303.61,342.64,8.66,148.63,149.61,351.77,241.24,466.44,15.64,19.57,33.27,42.75,50.18,60.83,24.12,25.78,36.34,24.46,59.91-.89,16.6-17.86,33.93-40.65,49.34-59.94,91.63-114.67,232.59-317.8,241.24-466.44,10.5-180.27-125.28-330.78-303.61-342.64ZM554.8,768.2c-139.63,0-252.82-113.19-252.82-252.82s113.19-252.82,252.82-252.82,252.82,113.19,252.82,252.82-113.19,252.82-252.82,252.82Z"/>
  <path class="cls-2" d="M667.12,614.76c7.22,5.49,7.55,15.83,2.14,21.14-5.24,5.15-15.15,4.85-20.68-1.97-26.43-28.45-52.86-56.91-79.29-85.36-2.03,1.29-7.87,4.62-15.65,3.9-4.35-.4-7.69-1.92-9.69-3.05,9.18-8.99,18.36-17.97,27.54-26.96,9.35,9.59,18.71,19.18,28.06,28.77,22.52,21.18,45.04,42.35,67.56,63.53ZM507.95,511.85c8.84-8.28,17.68-16.56,26.53-24.84-16.09-15.3-28.98-27.3-37.87-35.52-7.45-6.89-12.38-11.39-19.4-18.54-8.39-8.56-13.96-15-23.45-26-10.83-12.57-18.02-20.6-32.4-36.66-7.86-8.78-12.09-13.41-14.07-12.36-3.06,1.61,1.27,15.42,2.98,20.78,11.17,35.01,31.99,62.06,42.21,74.71,13.09,16.21,31.33,36.72,55.46,58.45ZM566.62,420.14l4.59-4.59s.05-.05.07-.08l-4.66,4.67ZM697.18,411.13c-1.52-2.12-3.91-2.66-4.01-2.68-3.04-.65-5.4,1.19-5.73,1.47-19.79,19.94-39.57,39.87-59.36,59.81-5.05,6.9-14.67,7.39-19.61,2.51-4.27-4.22-4.7-12.09,0-17.62,21-20.08,42-40.17,63-60.25,2.28-3.07,2.53-7.08.69-9.92-2.37-3.67-7.93-4.95-12.37-2.18-21.69,21.18-43.37,42.36-65.06,63.54-5.76,6.13-14.41,5.81-17.9,1.99-3.65-3.99-2.96-13.21,4.42-18.17,10.7-9.97,53.53-50.12,61.51-64.1,1.01-1.76,3.2-5.84,1.75-8.72-1.8-3.59-7.56-5.28-12.37-2.18l-60.94,60.93c-1.11.8-12.94,9.56-12.82,24.98.13,16.56,13.93,25.27,14.75,25.77-52.26,51.72-104.51,103.45-156.77,155.17-9.47,7.89-9.74,19.76-5.28,24.03,4.27,4.09,15.3,3.53,22.97-5.06,52.04-52.58,104.09-105.15,156.13-157.73,2,1.6,11.61,8.91,25.44,7.71,13.17-1.15,21.16-9.24,23.02-11.23,19.33-19.28,38.65-38.56,57.98-57.83,2.23-3.52,2.47-7.58.57-10.23Z"/>
</svg>