<?xml version="1.0" encoding="UTF-8"?>
<svg xmlns="http://www.w3.org/2000/svg" xmlns:xlink="http://www.w3.org/1999/xlink" viewBox="0 0 875.76 402.99">
  <defs>
    <style>
      .cls-1 {
        fill: url(#New_Gradient_Swatch_copy);
      }

      .cls-2 {
        fill: #fff;
      }

      .cls-3 {
        fill: url(#radial-gradient);
      }

      .cls-4 {
        fill: url(#New_Gradient_Swatch_copy-2);
      }
    </style>
    <radialGradient id="radial-gradient" cx="148.48" cy="382.97" fx="148.48" fy="382.97" r="28.53" gradientUnits="userSpaceOnUse">
      <stop offset=".07" stop-color="#ff7a2a"/>
      <stop offset=".21" stop-color="#ff921a"/>
      <stop offset=".37" stop-color="#ffa40e"/>
      <stop offset=".54" stop-color="#ffb007"/>
      <stop offset=".71" stop-color="#ffb405"/>
      <stop offset="1" stop-color="#ff7a2a"/>
    </radialGradient>
    <linearGradient id="New_Gradient_Swatch_copy" data-name="New Gradient Swatch copy" x1="15.25" y1="197.22" x2="284.08" y2="197.22" gradientUnits="userSpaceOnUse">
      <stop offset="0" stop-color="#ff7a2a"/>
      <stop offset=".09" stop-color="#ff921a"/>
      <stop offset=".19" stop-color="#ffa40e"/>
      <stop offset=".29" stop-color="#ffb007"/>
      <stop offset=".4" stop-color="#ffb405"/>
      <stop offset=".6" stop-color="#ffb405"/>
      <stop offset="1" stop-color="#ff7a2a"/>
    </linearGradient>
    <linearGradient id="New_Gradient_Swatch_copy-2" data-name="New Gradient Swatch copy" x1="87.53" y1="139.6" x2="209.7" y2="139.6" xlink:href="#New_Gradient_Swatch_copy"/>
  </defs>
  <g id="Layer_3" data-name="Layer 3">
    <path class="cls-3" d="M180.51,375.28c10.97,6.72,5.52,15.61-12.17,19.86-17.69,4.25-40.92,2.24-51.89-4.48-10.97-6.72-5.52-15.61,12.17-19.86,17.69-4.25,40.92-2.24,51.89,4.48Z"/>
  </g>
  <g id="Layer_4" data-name="Layer 4">
    <g id="Layer_5" data-name="Layer 5">
      <path class="cls-2" d="M338.17,107.24v-14.51h68.37v14.51h-25.48v68.73h-17.4v-68.73h-25.49ZM457.55,149.39v-35.85h17.31v62.43h-16.62v-11.34h-.65c-1.41,3.66-3.75,6.6-7.01,8.82-3.27,2.22-7.24,3.33-11.93,3.33-4.17,0-7.84-.95-11.01-2.85-3.17-1.9-5.64-4.59-7.42-8.09-1.78-3.5-2.68-7.68-2.7-12.56v-39.75h17.31v36.66c.03,3.69,1.02,6.6,2.97,8.74,1.95,2.14,4.57,3.21,7.84,3.21,2.09,0,4.04-.48,5.85-1.44,1.81-.96,3.29-2.39,4.41-4.29,1.12-1.9,1.67-4.24,1.65-7.03ZM345.4,213.5h21.71l22.92,55.93h.98l22.92-55.93h21.71v83.24h-17.07v-54.18h-.69l-21.54,53.78h-11.62l-21.54-53.98h-.69v54.38h-17.07v-83.24ZM478.24,297.97c-6.42,0-11.94-1.31-16.56-3.92-4.62-2.61-8.18-6.33-10.67-11.14-2.49-4.81-3.74-10.51-3.74-17.09s1.25-12.06,3.74-16.91c2.49-4.85,6.01-8.63,10.55-11.34,4.54-2.71,9.87-4.06,16-4.06,4.12,0,7.96.66,11.52,1.97s6.68,3.29,9.35,5.91c2.67,2.63,4.75,5.93,6.24,9.9,1.49,3.97,2.24,8.61,2.24,13.92v4.76h-52.72v-10.73h36.42c0-2.49-.54-4.7-1.63-6.63-1.08-1.92-2.58-3.43-4.49-4.53s-4.12-1.65-6.65-1.65-4.95.6-6.97,1.81c-2.02,1.21-3.6,2.82-4.74,4.84-1.14,2.02-1.72,4.26-1.75,6.73v10.2c0,3.09.58,5.76,1.73,8.01,1.15,2.25,2.78,3.98,4.9,5.2,2.11,1.22,4.62,1.83,7.52,1.83,1.92,0,3.68-.27,5.28-.81,1.6-.54,2.97-1.35,4.11-2.44,1.14-1.08,2-2.41,2.6-3.98l16.01,1.06c-.81,3.85-2.47,7.2-4.98,10.06-2.51,2.86-5.73,5.08-9.67,6.67-3.94,1.59-8.49,2.38-13.64,2.38ZM570.14,252.12l-15.85.97c-.27-1.35-.85-2.58-1.75-3.68-.89-1.1-2.07-1.98-3.52-2.64-1.45-.66-3.18-1-5.18-1-2.68,0-4.95.56-6.79,1.69s-2.76,2.62-2.76,4.49c0,1.49.6,2.75,1.79,3.78s3.24,1.86,6.14,2.48l11.3,2.28c6.07,1.25,10.59,3.25,13.58,6.02,2.98,2.76,4.47,6.39,4.47,10.89,0,4.09-1.2,7.68-3.6,10.77s-5.68,5.49-9.84,7.21c-4.16,1.72-8.95,2.58-14.37,2.58-8.27,0-14.84-1.73-19.73-5.18-4.89-3.46-7.76-8.16-8.6-14.12l17.03-.89c.51,2.52,1.76,4.44,3.74,5.75,1.98,1.31,4.51,1.97,7.6,1.97s5.48-.59,7.34-1.77c1.86-1.18,2.8-2.7,2.83-4.57-.03-1.57-.69-2.87-1.99-3.88-1.3-1.02-3.31-1.79-6.02-2.34l-10.81-2.15c-6.1-1.22-10.63-3.33-13.6-6.34-2.97-3.01-4.45-6.84-4.45-11.5,0-4.01,1.09-7.46,3.27-10.37,2.18-2.9,5.26-5.13,9.23-6.71,3.97-1.57,8.62-2.36,13.96-2.36,7.89,0,14.1,1.67,18.64,5,4.54,3.33,7.19,7.87,7.95,13.62ZM600.3,297.93c-3.98,0-7.53-.7-10.65-2.09s-5.58-3.47-7.38-6.22c-1.8-2.75-2.7-6.19-2.7-10.3,0-3.47.64-6.38,1.91-8.74s3.01-4.25,5.2-5.69c2.19-1.44,4.69-2.52,7.5-3.25,2.8-.73,5.75-1.25,8.84-1.54,3.63-.38,6.56-.74,8.78-1.08,2.22-.34,3.83-.85,4.84-1.52s1.5-1.68,1.5-3.01v-.24c0-2.57-.81-4.57-2.42-5.97-1.61-1.41-3.9-2.11-6.85-2.11-3.12,0-5.6.68-7.44,2.05-1.84,1.37-3.06,3.08-3.66,5.14l-16.01-1.3c.81-3.79,2.41-7.08,4.8-9.86,2.38-2.78,5.47-4.92,9.25-6.42s8.16-2.26,13.15-2.26c3.47,0,6.79.41,9.98,1.22,3.18.81,6.02,2.07,8.5,3.78s4.44,3.9,5.87,6.56c1.44,2.67,2.15,5.86,2.15,9.57v42.11h-16.42v-8.66h-.49c-1,1.95-2.34,3.66-4.02,5.14-1.68,1.48-3.7,2.63-6.06,3.46s-5.08,1.24-8.17,1.24ZM605.25,285.97c2.55,0,4.8-.51,6.75-1.52,1.95-1.02,3.48-2.39,4.59-4.12,1.11-1.73,1.67-3.7,1.67-5.89v-6.62c-.54.35-1.28.67-2.21.96-.94.29-1.99.54-3.15.77-1.17.23-2.33.43-3.5.61-1.17.18-2.22.33-3.17.47-2.03.3-3.81.77-5.32,1.42-1.52.65-2.7,1.53-3.54,2.62-.84,1.1-1.26,2.46-1.26,4.09,0,2.36.86,4.15,2.58,5.38,1.72,1.23,3.91,1.85,6.56,1.85ZM648.3,296.75v-83.24h20.12v33.41h32.8v-33.41h20.08v83.24h-20.08v-33.45h-32.8v33.45h-20.12ZM763.04,297.93c-6.56,0-12.19-1.35-16.89-4.04-4.7-2.7-8.32-6.46-10.85-11.3-2.53-4.84-3.8-10.45-3.8-16.85s1.27-12.05,3.8-16.89c2.53-4.84,6.15-8.6,10.85-11.3,4.7-2.7,10.33-4.04,16.89-4.04s12.19,1.35,16.89,4.04c4.7,2.7,8.32,6.46,10.85,11.3,2.53,4.84,3.8,10.47,3.8,16.89s-1.27,12.01-3.8,16.85c-2.53,4.84-6.15,8.6-10.85,11.3-4.7,2.7-10.33,4.04-16.89,4.04ZM763.16,282.93c2.38,0,4.4-.73,6.06-2.2,1.65-1.46,2.92-3.5,3.8-6.1.88-2.6,1.32-5.61,1.32-9.02s-.44-6.5-1.32-9.11c-.88-2.6-2.15-4.63-3.8-6.1-1.65-1.46-3.67-2.2-6.06-2.2s-4.55.73-6.24,2.2c-1.69,1.46-2.98,3.49-3.86,6.1s-1.32,5.64-1.32,9.11.44,6.42,1.32,9.02,2.17,4.63,3.86,6.1,3.77,2.2,6.24,2.2ZM816.94,320.16c-2.38,0-4.63-.18-6.75-.55-2.11-.37-3.93-.85-5.45-1.44l4.39-14.43c1.95.65,3.72,1.03,5.3,1.14,1.58.11,2.95-.14,4.1-.75,1.15-.61,2.04-1.69,2.66-3.23l.77-1.87-22.19-64.71h20.81l11.5,44.55h.65l11.67-44.55h20.93l-23.53,68.41c-1.14,3.42-2.74,6.43-4.82,9.04s-4.74,4.67-8.01,6.16-7.28,2.23-12.05,2.23Z"/>
      <path class="cls-1" d="M156.91,11.46h-14.5C67.91,15.9,11.13,79.94,15.48,154.71c3.62,62.14,62.55,147.06,100.85,195,6.54,8.18,13.91,17.87,20.98,25.43,10.08,10.78,15.19,10.22,25.05-.37,6.94-7.46,14.18-17,20.63-25.06,38.31-47.94,97.24-132.86,100.85-195,4.39-75.37-52.38-138.29-126.93-143.24ZM149.64,251.53c-58.37,0-105.7-47.32-105.7-105.69s47.32-105.7,105.7-105.7,105.69,47.32,105.69,105.7-47.32,105.69-105.69,105.69Z"/>
    </g>
    <path class="cls-4" d="M196.6,187.38c3.02,2.3,3.16,6.62.9,8.84-2.19,2.15-6.33,2.03-8.64-.82-11.05-11.9-22.1-23.79-33.15-35.69-.85.54-3.29,1.93-6.54,1.63-1.82-.17-3.21-.8-4.05-1.28l11.51-11.27c3.91,4.01,7.82,8.02,11.73,12.03,9.41,8.85,18.83,17.71,28.24,26.56ZM130.06,144.36c3.7-3.46,7.39-6.92,11.09-10.39-6.73-6.4-12.11-11.41-15.83-14.85-3.12-2.88-5.18-4.76-8.11-7.75-3.51-3.58-5.84-6.27-9.8-10.87-4.53-5.26-7.53-8.61-13.54-15.33-3.29-3.67-5.05-5.6-5.88-5.17-1.28.67.53,6.45,1.25,8.69,4.67,14.64,13.37,25.94,17.64,31.23,5.47,6.77,13.1,15.35,23.19,24.44ZM154.58,106.01l1.92-1.92s.02-.02.03-.03l-1.95,1.95ZM209.17,102.25c-.63-.88-1.63-1.11-1.68-1.12-1.27-.27-2.26.5-2.4.61-8.27,8.33-16.54,16.67-24.82,25-2.11,2.89-6.13,3.09-8.2,1.05-1.79-1.76-1.96-5.05,0-7.37,8.78-8.4,17.56-16.79,26.34-25.19.95-1.28,1.06-2.96.29-4.15-.99-1.54-3.31-2.07-5.17-.91-9.07,8.85-18.13,17.71-27.2,26.56-2.41,2.56-6.02,2.43-7.49.83-1.53-1.67-1.24-5.52,1.85-7.6,4.47-4.17,22.38-20.96,25.72-26.8.42-.74,1.34-2.44.73-3.65-.75-1.5-3.16-2.21-5.17-.91l-25.48,25.47c-.47.33-5.41,4-5.36,10.44.05,6.92,5.82,10.56,6.17,10.77-21.85,21.62-43.69,43.25-65.54,64.87-3.96,3.3-4.07,8.26-2.21,10.05,1.79,1.71,6.4,1.48,9.6-2.12,21.76-21.98,43.51-43.96,65.27-65.94.84.67,4.85,3.73,10.63,3.22,5.51-.48,8.85-3.86,9.62-4.69,8.08-8.06,16.16-16.12,24.24-24.18.93-1.47,1.03-3.17.24-4.28Z"/>
  </g>
</svg>